<svg width="112" height="112" viewBox="0 0 112 112" fill="none" xmlns="http://www.w3.org/2000/svg">
<g clip-path="url(#clip0_2148_1655)">
<rect x="7" y="7" width="98" height="98" rx="49" stroke="#E3646E" stroke-width="2"/>
<path d="M88.2464 91.684L88.2403 91.689L85.4668 94L88.2353 96.3068C88.5747 96.5865 88.8582 96.9276 89.0711 97.3121L94.7102 81.8046C94.7103 81.8044 94.7104 81.8042 94.7105 81.804C94.8674 81.3721 95.1079 80.9754 95.4182 80.6364C95.7286 80.2973 96.1028 80.0227 96.5194 79.8282C96.9359 79.6338 97.3867 79.5233 97.846 79.503C98.3051 79.4828 98.7636 79.5532 99.1954 79.7102L88.2464 91.684ZM88.2464 91.684L88.2523 91.6789C88.9571 91.0823 89.3975 90.2313 89.4776 89.3113C89.5578 88.3914 89.2711 87.4771 88.6801 86.7676C88.0891 86.0581 87.2416 85.6109 86.3224 85.5234C85.4031 85.4359 84.4865 85.7153 83.7723 86.3006L83.766 86.3058L83.7597 86.311L77.7599 91.3108C77.7599 91.3109 77.7598 91.311 77.7597 91.311C77.3655 91.6395 77.0484 92.0506 76.8307 92.5152C76.613 92.9799 76.5001 93.4868 76.5001 94C76.5001 94.5132 76.613 95.0201 76.8307 95.4848C77.0484 95.9494 77.3655 96.3605 77.7597 96.6889C77.7598 96.689 77.7599 96.6891 77.7599 96.6892L83.7548 101.685C84.1058 101.98 84.5115 102.204 84.9488 102.343C85.3891 102.483 85.8527 102.535 86.3129 102.494C86.6403 102.466 86.9614 102.392 87.2669 102.274L86.7105 103.804L86.7099 103.805C86.3935 104.678 86.4364 105.64 86.8291 106.48C87.221 107.319 87.9295 107.969 88.7993 108.287M88.2464 91.684L88.7993 108.287M88.7993 108.287C89.1842 108.428 89.5911 108.5 90.0012 108.5M88.7993 108.287L101.29 84.196L100.733 85.7261C101.039 85.6084 101.36 85.534 101.687 85.5055C102.147 85.4654 102.611 85.5169 103.051 85.6568C103.489 85.7958 103.894 86.0195 104.245 86.3149L110.24 91.3108C110.24 91.3109 110.24 91.311 110.24 91.311C110.635 91.6395 110.952 92.0505 111.169 92.5152C111.387 92.9799 111.5 93.4868 111.5 94C111.5 94.5132 111.387 95.0201 111.169 95.4848C110.952 95.9494 110.635 96.3605 110.24 96.6889C110.24 96.689 110.24 96.6891 110.24 96.6892L104.245 101.685C103.894 101.98 103.489 102.204 103.051 102.343C102.611 102.483 102.147 102.535 101.687 102.494C101.227 102.454 100.779 102.324 100.37 102.11C99.9603 101.896 99.5973 101.603 99.3016 101.248C99.0059 100.893 98.7834 100.483 98.647 100.041C98.5105 99.6 98.4628 99.136 98.5066 98.6761C98.5503 98.2162 98.6847 97.7695 98.902 97.3618C99.1177 96.957 99.4108 96.5985 99.7648 96.3068L102.533 94L99.7647 91.6932C99.4254 91.4134 99.1419 91.0724 98.9289 90.6879L93.2897 106.196C93.2897 106.196 93.2897 106.196 93.2896 106.196C93.0441 106.871 92.5967 107.455 92.0081 107.867C91.4199 108.279 90.7193 108.5 90.0012 108.5M90.0012 108.5C90.0007 108.5 90.0002 108.5 89.9997 108.5L90 106.5L90.0027 108.5C90.0022 108.5 90.0017 108.5 90.0012 108.5ZM101.497 82.8459C101.517 83.3052 101.447 83.7639 101.29 84.196L101.497 82.8459ZM101.497 82.8459C101.477 82.3866 101.366 81.9358 101.172 81.5193M101.497 82.8459L101.172 81.5193M101.172 81.5193C100.977 81.1027 100.703 80.7286 100.364 80.4181M101.172 81.5193L100.364 80.4181M100.364 80.4181C100.025 80.1079 99.6279 79.8674 99.1961 79.7104L100.364 80.4181Z" fill="#82BC4F" stroke="#16181D" stroke-width="4"/>
</g>
<defs>
<clipPath id="clip0_2148_1655">
<rect width="112" height="112" fill="white"/>
</clipPath>
</defs>
</svg>
